<svg preserveAspectRatio="none" overflow="visible" style="display: block;" width="216.5" height="227" viewBox="0 0 216.5 227" fill="none" xmlns="http://www.w3.org/2000/svg">
<g id="Group 6">
<path id="Vector 14" d="M108.25 0V227" stroke="#47B475" stroke-opacity="0.25" stroke-width="0.5"/>
<path id="Vector 24" d="M96.25 0V227" stroke="#47B475" stroke-opacity="0.25" stroke-width="0.5"/>
<path id="Vector 25" d="M84.25 0V227" stroke="#47B475" stroke-opacity="0.25" stroke-width="0.5"/>
<path id="Vector 26" d="M72.25 0V227" stroke="#47B475" stroke-opacity="0.25" stroke-width="0.5"/>
<path id="Vector 27" d="M60.25 0V227" stroke="#47B475" stroke-opacity="0.25" stroke-width="0.5"/>
<path id="Vector 28" d="M48.25 0V227" stroke="#47B475" stroke-opacity="0.25" stroke-width="0.5"/>
<path id="Vector 29" d="M36.25 0V227" stroke="#47B475" stroke-opacity="0.25" stroke-width="0.5"/>
<path id="Vector 30" d="M24.25 0V227" stroke="#47B475" stroke-opacity="0.25" stroke-width="0.5"/>
<path id="Vector 31" d="M12.25 0V227" stroke="#47B475" stroke-opacity="0.25" stroke-width="0.5"/>
<path id="Vector 32" d="M0.25 0L0.25 227" stroke="#47B475" stroke-opacity="0.25" stroke-width="0.5"/>
<path id="Vector 15" d="M120.25 0V227" stroke="#47B475" stroke-opacity="0.25" stroke-width="0.5"/>
<path id="Vector 16" d="M132.25 0V227" stroke="#47B475" stroke-opacity="0.25" stroke-width="0.5"/>
<path id="Vector 17" d="M144.25 0V227" stroke="#47B475" stroke-opacity="0.25" stroke-width="0.5"/>
<path id="Vector 18" d="M156.25 0V227" stroke="#47B475" stroke-opacity="0.25" stroke-width="0.5"/>
<path id="Vector 19" d="M168.25 0V227" stroke="#47B475" stroke-opacity="0.25" stroke-width="0.5"/>
<path id="Vector 20" d="M180.25 0V227" stroke="#47B475" stroke-opacity="0.25" stroke-width="0.5"/>
<path id="Vector 21" d="M192.25 0V227" stroke="#47B475" stroke-opacity="0.25" stroke-width="0.5"/>
<path id="Vector 22" d="M204.25 0V227" stroke="#47B475" stroke-opacity="0.25" stroke-width="0.5"/>
<path id="Vector 23" d="M216.25 0V227" stroke="#47B475" stroke-opacity="0.25" stroke-width="0.5"/>
</g>
</svg>
